<svg width="31" height="40" viewBox="0 0 31 40" fill="none" xmlns="http://www.w3.org/2000/svg">
    <path fill-rule="evenodd" clip-rule="evenodd"
          d="M2.49998 0H19.7412L30.9999 11.215V37.5C30.9999 38.8812 29.88 40 28.4999 40H2.49998C1.11994 40 0 38.8812 0 37.5V2.49998C0 1.11877 1.12007 0 2.49998 0Z"
          fill="#E2574C"/>
    <path fill-rule="evenodd" clip-rule="evenodd"
          d="M30.9638 11.25H22.25C20.8699 11.25 19.75 10.1301 19.75 8.75004V0.0250244L30.9638 11.25Z" fill="#B53629"/>
    <path d="M5.71156 24H7.46937V21.7415H8.66255C10.328 21.7415 11.3685 20.7543 11.3685 19.245C11.3685 17.75 10.3493 16.7273 8.71582 16.7273H5.71156V24ZM7.46937 20.3565V18.1442H8.33585C9.1242 18.1442 9.54679 18.5703 9.54679 19.245C9.54679 19.9162 9.1242 20.3565 8.33585 20.3565H7.46937ZM14.9232 24C17.1391 24 18.5134 22.6328 18.5134 20.3601C18.5134 18.0909 17.1391 16.7273 14.9197 16.7273H12.235V24H14.9232ZM13.9928 22.5014V18.2259H14.8309C16.0809 18.2259 16.752 18.794 16.752 20.3601C16.752 21.9332 16.0809 22.5014 14.8557 22.5014H13.9928ZM19.5397 24H21.2975V21.0774H24.1881V19.6463H21.2975V18.1548H24.5042V16.7273H19.5397V24Z"
          fill="white"/>
</svg>
