<svg width="31" height="40" viewBox="0 0 31 40" fill="none" xmlns="http://www.w3.org/2000/svg">
    <path fill-rule="evenodd" clip-rule="evenodd"
          d="M2.49998 0H19.7412L30.9999 11.215V37.5C30.9999 38.8812 29.88 40 28.4999 40H2.49998C1.11994 40 0 38.8812 0 37.5V2.49998C0 1.11877 1.12007 0 2.49998 0Z"
          fill="#F4B459"/>
    <path fill-rule="evenodd" clip-rule="evenodd"
          d="M30.9638 11.25H22.25C20.8699 11.25 19.75 10.1301 19.75 8.75004V0.0250244L30.9638 11.25Z" fill="#D07C40"/>
    <path d="M8.42987 24H14.1827V22.5724H10.6529L14.1863 17.7287V16.7273H8.43342V18.1548H11.9632L8.42987 22.9986V24ZM17.0192 16.7273H15.2614V24H17.0192V16.7273ZM18.1227 24H19.8805V21.7415H21.0737C22.7392 21.7415 23.7797 20.7543 23.7797 19.245C23.7797 17.75 22.7605 16.7273 21.127 16.7273H18.1227V24ZM19.8805 20.3565V18.1442H20.747C21.5353 18.1442 21.9579 18.5703 21.9579 19.245C21.9579 19.9162 21.5353 20.3565 20.747 20.3565H19.8805Z"
          fill="white"/>
</svg>
