<svg id="Layer_1" enable-background="new 0 0 512 512" height="512" viewBox="0 0 512 512" width="512"
     xmlns="http://www.w3.org/2000/svg">
    <g>
        <path d="m490.63 28.132h-469.26c-11.803 0-21.37 9.568-21.37 21.37v281.75c0 11.802 9.567 21.37 21.37 21.37h469.26c11.802 0 21.37-9.567 21.37-21.37v-281.75c0-11.802-9.567-21.37-21.37-21.37z"
              fill="#f9f6f9"/>
        <path d="m463.21 115.178c-20.031-2.331-35.924-18.231-38.256-38.256-.502-4.307-4.097-7.583-8.433-7.583h-321.041c-4.337 0-7.932 3.275-8.434 7.583-2.331 20.03-18.23 35.924-38.256 38.256-4.307.502-7.583 4.097-7.583 8.434v133.531c0 4.337 3.275 7.932 7.583 8.434 2.453.286 4.843.778 7.155 1.453l9.644-2.836 116.915 37.773 7.905 9.449h226.111c4.337 0 7.932-3.275 8.434-7.583 2.331-20.031 18.231-35.924 38.256-38.256 4.307-.501 7.583-4.097 7.583-8.433v-133.533c0-4.337-3.275-7.932-7.583-8.433z"
              fill="#cbe2ff"/>
        <path d="m43.406 331.252v-281.75c0-11.802 9.567-21.37 21.37-21.37h-43.406c-11.803 0-21.37 9.568-21.37 21.37v281.75c0 11.802 9.567 21.37 21.37 21.37h43.406c-11.802 0-21.37-9.568-21.37-21.37z"
              fill="#f9f6f9"/>
        <g>
            <path d="m92.196 265.576c-4.307-.501-7.583-4.097-7.583-8.433v-133.532c0-4.337 3.275-7.932 7.583-8.434 20.031-2.331 35.924-18.231 38.256-38.256.501-4.307 4.097-7.583 8.433-7.583h-43.405c-4.337 0-7.932 3.275-8.434 7.583-2.331 20.03-18.23 35.924-38.256 38.256-4.307.502-7.583 4.097-7.583 8.434v133.531c0 4.337 3.275 7.932 7.583 8.434 2.453.286 4.843.778 7.155 1.453l9.644-2.836 56.101 18.125c-7.006-9.091-17.509-15.347-29.494-16.742z"
                  fill="#9dc6fb"/>
        </g>
        <path d="m94.859 364.978h-24.988l-4.282 1.735v111.89c0 4.113 4.51 6.633 8.013 4.477l21.257-13.081z"
              fill="#ff4654"/>
        <path d="m162.93 364.978h-26.169v105.021l21.257 13.081c3.503 2.156 8.013-.365 8.013-4.477v-111.89z"
              fill="#ff636e"/>
        <path d="m295.41 106.387h-78.82c-4.216 0-7.634 3.418-7.634 7.634v15.636c0 4.216 3.418 7.634 7.634 7.634h78.821c4.216 0 7.634-3.418 7.634-7.634v-15.636c-.001-4.216-3.419-7.634-7.635-7.634z"
              fill="#ff636e"/>
        <path d="m250.506 129.657v-15.636c0-4.216 3.418-7.634 7.634-7.634h-41.55c-4.216 0-7.634 3.418-7.634 7.634v15.636c0 4.216 3.418 7.634 7.634 7.634h41.55c-4.216 0-7.634-3.418-7.634-7.634z"
              fill="#ff4654"/>
        <g>
            <path d="m303.045 181.877h-94.089c-4.267 0-7.726-3.459-7.726-7.726s3.459-7.726 7.726-7.726h94.089c4.267 0 7.726 3.459 7.726 7.726s-3.459 7.726-7.726 7.726z"
                  fill="#9dc6fb"/>
        </g>
        <g>
            <path d="m390.459 217.589h-268.918c-4.267 0-7.726-3.459-7.726-7.726 0-4.268 3.459-7.726 7.726-7.726h268.918c4.267 0 7.726 3.459 7.726 7.726s-3.459 7.726-7.726 7.726z"
                  fill="#9dc6fb"/>
        </g>
        <g>
            <path d="m390.459 247.636h-268.918c-4.267 0-7.726-3.459-7.726-7.726 0-4.268 3.459-7.726 7.726-7.726h268.918c4.267 0 7.726 3.459 7.726 7.726 0 4.268-3.459 7.726-7.726 7.726z"
                  fill="#9dc6fb"/>
        </g>
        <g>
            <path d="m354.51 277.684h-191.408c-4.267 0-7.726-3.459-7.726-7.726 0-4.268 3.459-7.726 7.726-7.726h191.408c4.267 0 7.726 3.459 7.726 7.726s-3.459 7.726-7.726 7.726z"
                  fill="#9dc6fb"/>
        </g>
        <path d="m134.515 380.946h-38.503l-1.818 2.01v87.452l18.861-11.606c1.69-1.04 3.821-1.04 5.511 0l18.861 11.606v-87.452z"
              fill="#ff4654"/>
        <path d="m115.867 380.946h-19.855l-1.818 2.01v87.452l18.861-11.606c.862-.53 1.839-.787 2.813-.776v-77.08z"
              fill="#e61e2b"/>
        <circle cx="115.81" cy="311.548" fill="#ffd064" r="74.603"/>
        <path d="m74.173 311.547c0-35.535 24.853-65.247 58.12-72.753-5.305-1.197-10.816-1.85-16.483-1.85-41.202 0-74.603 33.401-74.603 74.603s33.401 74.603 74.603 74.603c5.666 0 11.178-.653 16.483-1.85-33.267-7.506-58.12-37.217-58.12-72.753z"
              fill="#ffc250"/>
        <path d="m115.809 267.85c-24.094 0-43.697 19.603-43.697 43.698 0 24.094 19.603 43.697 43.697 43.697 24.095 0 43.698-19.603 43.698-43.697 0-24.095-19.602-43.698-43.698-43.698z"
              fill="#ffc250"/>
        <path d="m105.078 311.548c0-18.265 11.268-33.94 27.214-40.46-5.09-2.081-10.653-3.238-16.483-3.238-24.094 0-43.697 19.603-43.697 43.698 0 24.094 19.603 43.697 43.697 43.697 5.83 0 11.393-1.157 16.483-3.238-15.946-6.52-27.214-22.195-27.214-40.459z"
              fill="#ebb044"/>
    </g>
</svg>
